<svg xmlns="http://www.w3.org/2000/svg" width="64" height="64" viewBox="0 0 64 64" fill="none" color="#0E3D32" role="img" aria-labelledby="title"><title id="title">Bloom</title><style>path,circle,ellipse,rect,line,polyline{vector-effect:non-scaling-stroke}.accent{stroke:#94B83D}.accent-fill{fill:#94B83D;stroke:none}</style><g stroke="currentColor" stroke-width="1.5" stroke-linecap="round" stroke-linejoin="round"><circle cx="32" cy="32" r="6"/><path d="M32 26c-7-2-10-8-7-14 6 1 10 6 7 14Zm6 3c2-7 8-10 14-7-1 6-6 10-14 7Zm0 7c7 2 10 8 7 14-6-1-10-6-7-14Zm-12 0c-7 2-10 8-7 14 6-1 10-6 7-14Zm0-7c-2-7-8-10-14-7 1 6 6 10 14 7Z"/><circle class="accent" cx="32" cy="32" r="18"/></g></svg>
