<svg xmlns="http://www.w3.org/2000/svg" width="64" height="64" viewBox="0 0 64 64" fill="none" color="#0E3D32" role="img" aria-labelledby="title"><title id="title">Health</title><style>path,circle,ellipse,rect,line,polyline{vector-effect:non-scaling-stroke}.accent{stroke:#94B83D}.accent-fill{fill:#94B83D;stroke:none}</style><g stroke="currentColor" stroke-width="1.5" stroke-linecap="round" stroke-linejoin="round"><path d="M32 53C18 44 10 36 10 24c0-9 11-14 18-7l4 5 4-5c7-7 18-2 18 7 0 12-8 20-22 29Z"/><path d="M32 42V27"/><path d="M32 33c-6 0-10-3-11-9 6-1 10 2 11 7m0-1c5 0 9-3 10-9-5-1-9 2-10 7"/></g></svg>
