<svg xmlns="http://www.w3.org/2000/svg" width="64" height="64" viewBox="0 0 64 64" fill="none" color="#0E3D32" role="img" aria-labelledby="title"><title id="title">Nursery</title><style>path,circle,ellipse,rect,line,polyline{vector-effect:non-scaling-stroke}.accent{stroke:#94B83D}.accent-fill{fill:#94B83D;stroke:none}</style><g stroke="currentColor" stroke-width="1.5" stroke-linecap="round" stroke-linejoin="round"><ellipse cx="32" cy="48" rx="24" ry="7"/><path d="M8 31v17m48-17v17"/><path d="M14 31h36"/><path d="M20 43V25m12 18V18m12 25V27"/><path d="M20 30c-5 0-8-3-9-8 5 0 8 2 9 6m0 0c5 0 8-3 9-8-5 0-8 2-9 6"/><path d="M32 24c-5 0-8-3-9-8 5 0 8 2 9 6m0 0c5 0 8-3 9-8-5 0-8 2-9 6"/><path d="M44 32c-4 0-7-2-8-6 4 0 7 2 8 5m0 0c4 0 7-2 8-6-4 0-7 2-8 5"/></g></svg>
