<svg xmlns="http://www.w3.org/2000/svg" width="64" height="64" viewBox="0 0 64 64" fill="none" color="#0E3D32" role="img" aria-labelledby="title"><title id="title">Self</title><style>path,circle,ellipse,rect,line,polyline{vector-effect:non-scaling-stroke}.accent{stroke:#94B83D}.accent-fill{fill:#94B83D;stroke:none}</style><g stroke="currentColor" stroke-width="1.5" stroke-linecap="round" stroke-linejoin="round"><path d="M32 56c-2-13 1-23 8-31"/><path d="M32 56c2-13-1-23-8-31"/><path d="M32 48c-9-4-15-11-16-22m16 12c9-4 15-11 16-22"/><path d="M32 29c-7-3-10-9-9-17 7 2 10 7 9 15m0 2c7-3 10-9 9-17-7 2-10 7-9 15"/><path class="accent" d="M21 56h22"/></g></svg>
